<svg xmlns="http://www.w3.org/2000/svg" version="1.1" viewBox="0 0 671 436.8702697753906" width="671.00" height="437.00">
<path fill="#121212" fill-opacity="0.992" d="&#xA;  M 279.71 0.00&#xA;  Q 304.32 1.06 322.98 6.51&#xA;  Q 337.00 10.61 347.21 16.89&#xA;  Q 356.13 22.37 360.22 26.10&#xA;  Q 366.97 32.25 370.91 36.69&#xA;  Q 372.91 38.94 374.66 41.28&#xA;  Q 376.51 43.75 376.84 44.39&#xA;  C 377.33 45.37 378.77 46.06 378.97 47.33&#xA;  A 1.26 1.25 13.4 0 0 379.49 48.17&#xA;  Q 379.85 48.42 380.04 48.72&#xA;  Q 389.74 64.31 394.90 79.79&#xA;  Q 406.10 113.36 412.83 132.40&#xA;  Q 450.49 238.96 455.60 253.38&#xA;  Q 458.81 262.44 460.72 268.19&#xA;  Q 462.92 274.82 465.52 281.72&#xA;  Q 466.36 283.94 470.51 295.20&#xA;  C 471.05 296.66 471.21 298.39 472.04 299.60&#xA;  A 1.64 1.64 0.0 0 0 475.04 298.68&#xA;  L 475.04 297.69&#xA;  A 1.04 1.02 60.5 0 1 475.18 297.17&#xA;  Q 476.52 294.91 477.57 291.81&#xA;  Q 479.02 287.54 479.11 287.29&#xA;  Q 516.96 187.41 549.59 96.86&#xA;  Q 565.83 51.76 567.22 48.21&#xA;  C 577.07 22.94 594.14 3.84 622.24 0.00&#xA;  L 630.19 0.00&#xA;  Q 637.20 1.28 640.74 2.54&#xA;  Q 645.53 4.22 652.00 8.17&#xA;  Q 658.66 12.24 664.85 21.10&#xA;  Q 668.83 26.80 671.00 35.52&#xA;  L 671.00 42.87&#xA;  C 669.98 46.04 669.02 48.89 667.16 51.77&#xA;  Q 656.02 69.03 655.93 69.16&#xA;  Q 655.08 70.44 648.97 81.01&#xA;  Q 644.24 89.20 633.76 111.49&#xA;  Q 630.51 118.39 625.00 131.25&#xA;  Q 619.20 144.77 614.99 155.25&#xA;  Q 566.17 276.84 561.23 289.17&#xA;  Q 560.26 291.61 559.41 293.52&#xA;  Q 558.29 296.02 557.65 297.92&#xA;  Q 556.42 301.55 555.08 304.53&#xA;  Q 553.44 308.21 553.21 309.11&#xA;  Q 552.67 311.19 551.38 313.67&#xA;  Q 551.16 314.10 548.95 320.00&#xA;  Q 548.08 322.31 541.02 339.27&#xA;  Q 540.95 339.45 540.97 339.79&#xA;  A 1.79 1.73 59.2 0 1 540.75 340.72&#xA;  Q 539.98 342.07 536.96 349.75&#xA;  Q 531.65 363.27 516.99 399.76&#xA;  Q 512.38 411.24 507.67 419.44&#xA;  Q 504.68 424.65 497.65 429.95&#xA;  Q 496.10 431.12 494.61 431.70&#xA;  Q 492.92 432.37 491.38 433.37&#xA;  A 2.12 2.00 -68.4 0 1 490.78 433.65&#xA;  L 483.33 435.87&#xA;  A 1.38 1.25 -48.0 0 1 482.85 435.92&#xA;  C 479.89 435.73 477.16 436.79 474.21 436.84&#xA;  Q 470.62 436.89 466.47 436.84&#xA;  A 5.58 5.27 -34.3 0 1 464.90 436.59&#xA;  Q 462.44 435.84 459.64 435.93&#xA;  A 2.46 2.39 -32.8 0 1 458.54 435.71&#xA;  Q 456.24 434.66 452.62 433.96&#xA;  A 5.11 5.02 61.5 0 1 451.80 433.71&#xA;  Q 441.50 429.45 435.71 419.30&#xA;  Q 433.61 415.62 430.60 407.88&#xA;  Q 423.29 389.11 420.49 381.72&#xA;  Q 414.38 365.60 408.51 350.01&#xA;  Q 363.73 231.11 334.31 150.06&#xA;  Q 332.63 145.42 331.02 140.76&#xA;  Q 328.34 133.01 323.24 118.69&#xA;  Q 320.71 111.60 317.11 102.89&#xA;  Q 311.08 88.33 299.10 80.71&#xA;  A 5.45 5.44 70.1 0 0 297.89 80.14&#xA;  Q 295.78 79.45 293.85 78.32&#xA;  A 2.32 2.31 -30.7 0 0 292.62 78.01&#xA;  C 290.69 78.06 289.85 76.87 288.25 76.86&#xA;  C 286.78 76.85 285.40 75.83 283.58 75.94&#xA;  Q 280.32 76.14 277.50 75.16&#xA;  A 3.94 3.66 52.5 0 0 276.26 74.95&#xA;  L 237.61 74.93&#xA;  A 6.11 6.06 31.4 0 0 234.87 75.58&#xA;  Q 234.23 75.90 233.58 75.90&#xA;  A 3.16 3.14 -61.4 0 0 231.80 76.43&#xA;  Q 228.31 78.74 226.83 82.44&#xA;  Q 225.89 84.80 225.89 90.18&#xA;  Q 225.92 223.33 225.92 344.47&#xA;  C 225.92 345.74 226.10 347.99 226.62 349.50&#xA;  C 227.38 351.72 226.51 355.31 227.52 357.68&#xA;  C 228.07 358.98 227.60 360.85 228.43 361.96&#xA;  Q 228.76 362.39 228.95 364.00&#xA;  Q 228.96 364.16 229.48 366.06&#xA;  Q 232.66 377.67 240.07 386.47&#xA;  Q 246.32 393.90 253.13 398.86&#xA;  Q 258.46 402.73 260.84 406.89&#xA;  Q 265.42 414.87 260.07 423.34&#xA;  Q 258.30 426.16 256.77 427.46&#xA;  Q 254.17 429.67 250.62 431.64&#xA;  A 1.90 1.89 -65.2 0 1 250.00 431.87&#xA;  Q 248.38 432.19 246.75 433.31&#xA;  A 1.02 0.93 -66.0 0 1 246.43 433.45&#xA;  L 237.14 435.85&#xA;  A 0.36 0.36 0.0 0 1 237.02 435.85&#xA;  Q 236.10 435.61 228.92 436.63&#xA;  Q 226.74 436.94 215.71 436.85&#xA;  A 8.77 8.46 51.9 0 1 213.50 436.54&#xA;  Q 210.88 435.82 207.33 435.96&#xA;  A 6.44 6.39 -36.4 0 1 204.96 435.61&#xA;  Q 202.43 434.71 197.83 433.92&#xA;  A 6.95 1.77 12.6 0 0 196.88 433.76&#xA;  Q 196.62 433.72 190.21 431.22&#xA;  Q 172.45 424.31 161.24 408.05&#xA;  Q 151.59 394.05 147.97 373.37&#xA;  C 147.37 369.93 146.81 367.68 147.05 364.50&#xA;  A 3.12 3.02 36.3 0 0 146.80 363.03&#xA;  Q 146.04 361.28 146.04 356.25&#xA;  Q 146.05 260.79 146.05 101.21&#xA;  C 146.05 98.67 144.80 96.92 145.05 94.69&#xA;  A 0.77 0.77 0.0 0 0 144.76 94.01&#xA;  Q 144.65 93.92 144.64 93.91&#xA;  A 2.34 2.16 -75.7 0 1 144.19 93.08&#xA;  Q 143.01 89.14 140.37 85.88&#xA;  Q 135.92 80.40 130.35 78.18&#xA;  Q 128.38 77.40 127.88 77.29&#xA;  Q 126.27 76.95 125.00 76.35&#xA;  A 3.09 3.07 56.8 0 0 123.59 76.05&#xA;  C 120.43 76.09 118.17 74.95 115.07 74.94&#xA;  Q 35.77 74.87 20.00 74.96&#xA;  Q 16.90 74.97 14.87 74.27&#xA;  Q 13.63 73.84 13.24 73.91&#xA;  A 1.02 1.01 -27.2 0 1 12.35 73.63&#xA;  Q 12.18 73.46 9.83 72.35&#xA;  Q 8.46 71.70 7.39 70.86&#xA;  C 0.64 65.56 1.11 58.08 0.00 50.36&#xA;  L 0.00 18.37&#xA;  C 0.56 15.60 1.03 12.46 2.09 10.07&#xA;  Q 6.03 1.18 16.49 0.00&#xA;  L 279.71 0.00&#xA;  Z"/>
</svg>